<svg xmlns="http://www.w3.org/2000/svg" viewBox="0 0 99.35 89.81"><defs><style>.cls-1{fill:#fff;}.cls-2{fill:none;stroke:#fff;stroke-miterlimit:10;stroke-width:4px;}</style></defs><g id="Camada_2" data-name="Camada 2"><g id="azul"><path class="cls-1" d="M49.19,4C60,4,67.26,13.32,68.05,14.38c9.76,13.06.89,31.65-8,46.46L52.2,63.31l-.23.08L44,62.1C34,49.8,21.61,31.86,29.4,17.27c1.08-2,7.05-12.21,18.11-13.2C48.07,4,48.64,4,49.19,4m0-4c-.66,0-1.34,0-2,.09C33.66,1.29,26.7,13.83,25.87,15.38,16.76,32.46,30.55,52,41.13,64.87a3.26,3.26,0,0,0,2,1.14l8.4,1.35,0,.36a3.28,3.28,0,0,1,1-.15,2.92,2.92,0,0,1,.51,0l.43.07,0-.55,8.11-2.56a3.28,3.28,0,0,0,1.8-1.41C71.91,48.9,82.84,27.49,71.26,12,70.41,10.86,62,0,49.19,0Z"/><path class="cls-1" d="M68.91,69.62V85.81H42.35L40.9,72.51l28-2.89m1.79-4.2-.23,0L38.7,68.71a2.22,2.22,0,0,0-2,2.45l1.82,16.68a2.21,2.21,0,0,0,2.2,2h30a2.21,2.21,0,0,0,2.21-2.22v-20a2.22,2.22,0,0,0-2.21-2.22Z"/><path class="cls-2" d="M50.11,62.62S48,21.38,35.35,29s7.59,22.26,17.7,14.93,19.23-22.52,9.62-26.31-8.59,20.23-8.59,20.23L56.6,61.35"/><line class="cls-2" x1="43.19" y1="75.77" x2="62.92" y2="74.51"/><line class="cls-2" x1="68.99" y1="80.33" x2="44.71" y2="82.35"/><line class="cls-2" x1="11.82" y1="39.9" x2="3.72" y2="44.66"/><line class="cls-2" x1="0.43" y1="29.73" x2="9.54" y2="27.71"/><line class="cls-2" x1="11.82" y1="15.45" x2="2.2" y2="10.5"/><line class="cls-2" x1="86.95" y1="12.98" x2="97.33" y2="8.35"/><line class="cls-2" x1="90.24" y1="24.92" x2="99.35" y2="24.92"/><line class="cls-2" x1="86.95" y1="35.8" x2="97.33" y2="41.11"/></g></g></svg>